<?xml version="1.0" encoding="UTF-8" standalone="no"?>
<svg xmlns="http://www.w3.org/2000/svg" version="1.1" viewBox="0.00 0.00 192.00 192.00">
  <g stroke-width="2.00" fill="none" stroke-linecap="butt">
    <path stroke="#006393" d="   M 174.61 50.22   L 143.67 68.59"></path>
    <path stroke="#006393" d="   M 48.16 68.61   Q 26.08 55.98 19.13 51.87   Q 17.79 51.08 16.77 51.19"></path>
    <path stroke="#006393" d="   M 96.21 187.28   L 95.86 151.36"></path>
  </g>
  <path fill="#004160" d="   M 174.61 50.22   L 143.67 68.59   L 66.78 22.38   Q 66.11 21.97 66.79 21.58   L 95.46 5.01   Q 95.88 4.77 96.30 5.01   L 174.61 50.22   Z"></path>
  <path fill="#0084c5" d="   M 48.16 68.61   Q 26.08 55.98 19.13 51.87   Q 17.79 51.08 16.77 51.19   Q 16.74 50.89 16.90 50.56   Q 17.02 50.31 17.33 50.14   Q 30.90 42.32 44.12 34.66   A 1.65 1.65 0.0 0 1 45.76 34.66   L 76.09 52.18   A 0.16 0.15 -45.6 0 1 76.09 52.45   L 48.16 68.61   Z"></path>
  <path fill="#0084c5" d="   M 174.61 50.22   L 174.84 50.54   Q 175.00 50.76 175.00 51.02   L 175.00 82.70   Q 175.00 83.10 174.65 83.30   L 144.20 100.90   Q 143.76 101.15 143.76 100.64   L 143.67 68.59   L 174.61 50.22   Z"></path>
  <path fill="#004160" d="   M 16.77 51.19   Q 17.79 51.08 19.13 51.87   Q 26.08 55.98 48.16 68.61   L 48.14 159.52   Q 48.14 160.04 47.70 159.78   L 17.28 142.24   Q 16.78 141.95 16.78 141.38   L 16.77 51.19   Z"></path>
  <path fill="#0084c5" d="   M 67.72 112.13   L 67.72 80.26   A 0.66 0.66 0.0 0 1 68.05 79.69   L 95.58 63.80   A 0.66 0.66 0.0 0 1 96.24 63.80   L 123.80 79.73   A 0.66 0.66 0.0 0 1 124.13 80.30   L 124.14 112.09   A 0.66 0.66 0.0 0 1 123.81 112.66   L 96.23 128.58   A 0.66 0.66 0.0 0 1 95.57 128.58   L 68.05 112.70   A 0.66 0.66 0.0 0 1 67.72 112.13   Z"></path>
  <path fill="#004160" d="   M 96.21 187.28   L 95.86 151.36   L 174.64 106.28   A 0.24 0.24 0.0 0 1 175.00 106.49   L 175.00 141.45   Q 175.00 141.95 174.56 142.21   L 96.50 187.28   Q 96.49 187.29 96.47 187.29   Q 96.34 187.29 96.21 187.28   Z"></path>
  <path fill="#0084c5" d="   M 95.86 151.36   L 96.21 187.28   Q 96.19 187.48 95.77 187.45   Q 95.58 187.43 95.36 187.31   Q 81.81 179.49 68.21 171.62   Q 67.72 171.34 67.72 170.78   L 67.72 135.50   Q 67.72 135.12 68.06 135.31   L 95.86 151.36   Z"></path>
</svg>
